<svg width="30" height="30" viewBox="0 0 30 30" fill="none" xmlns="http://www.w3.org/2000/svg">
<g clip-path="url(#clip0_69_86)">
<path d="M28.3235 7.5H24.3705C25.0764 6.75 25.4999 5.7 25.4999 4.5C25.4999 1.95 23.6646 0 21.2647 0C19.8529 0 17.3118 1.35 15.6176 3.15C13.9235 1.35 11.3824 0 9.97059 0C7.57059 0 5.73529 1.95 5.73529 4.5C5.73529 5.7 6.15882 6.75 6.8647 7.5H2.91176C2.06471 7.5 1.5 8.1 1.5 9V13.2C1.5 13.35 1.64118 13.5 1.78235 13.5H13.6412C13.9235 13.5 14.2059 13.2 14.2059 12.9V8.1C14.2059 7.8 14.4882 7.5 14.7706 7.5H16.4647C16.7471 7.5 17.0294 7.8 17.0294 8.1V12.9C17.0294 13.2 17.3118 13.5 17.5941 13.5H29.4529C29.5941 13.5 29.7352 13.35 29.7352 13.2V9C29.7352 8.1 29.1705 7.5 28.3235 7.5ZM9.97059 6C9.12353 6 8.55882 5.4 8.55882 4.5C8.55882 3.6 9.12353 3 9.97059 3C10.8176 3 13.3588 4.8 14.0647 5.7C13.6412 5.85 9.97059 6 9.97059 6ZM21.2647 6C21.2647 6 17.5941 5.85 17.1706 5.7C18.0176 4.65 20.4176 3 21.2647 3C22.1117 3 22.6764 3.6 22.6764 4.5C22.6764 5.4 22.1117 6 21.2647 6Z" fill="#35C31E"/>
<path d="M13.6425 16.5015H3.19544C3.05426 16.5015 2.91309 16.6515 2.91309 16.8015V28.5013C2.91309 29.4013 3.47779 30.0013 4.32485 30.0013H13.6425C13.9249 30.0013 14.2072 29.7013 14.2072 29.4013V17.1015C14.2072 16.8015 13.9249 16.5015 13.6425 16.5015Z" fill="white"/>
<path d="M28.043 16.5015H17.596C17.3136 16.5015 17.0312 16.8015 17.0312 17.1015V29.4013C17.0312 29.7013 17.3136 30.0013 17.596 30.0013H26.9136C27.7606 30.0013 28.3253 29.4013 28.3253 28.5013V16.8015C28.3253 16.6515 28.1842 16.5015 28.043 16.5015Z" fill="white"/>
</g>
<defs>
<clipPath id="clip0_69_86">
<rect width="30" height="30" fill="white"/>
</clipPath>
</defs>
</svg>
