<svg width="30" height="30" viewBox="0 0 30 30" fill="none" xmlns="http://www.w3.org/2000/svg">
<path d="M18.7107 26.1311H3.796C2.66441 26.1311 1.74902 25.214 1.74902 24.0841V23.7284C1.74902 19.0417 5.54831 15.2441 10.2333 15.2441H12.2733C16.9601 15.2441 20.7576 19.0434 20.7576 23.7284V24.0841C20.7576 25.214 19.8405 26.1311 18.7107 26.1311Z" fill="white"/>
<path d="M11.253 13.3752C13.878 13.3752 16.0061 11.2472 16.0061 8.62217C16.0061 5.99714 13.878 3.86914 11.253 3.86914C8.628 3.86914 6.5 5.99714 6.5 8.62217C6.5 11.2472 8.628 13.3752 11.253 13.3752Z" fill="#35C31E"/>
<path d="M25.1163 10.7248V7.58984H22.248V10.7248H19.1113V13.593H22.248V16.7297H25.1163V13.593H28.2512V10.7248H25.1163Z" fill="#35C31E"/>
</svg>
