<svg width="30" height="30" viewBox="0 0 30 30" fill="none" xmlns="http://www.w3.org/2000/svg">
<path d="M26.4429 27.507H3.55807C2.33838 27.507 1.34961 26.5182 1.34961 25.2985V6.24264C1.34961 5.02295 2.33838 4.03418 3.55807 4.03418H26.4429C27.6626 4.03418 28.6514 5.02295 28.6514 6.24264V25.2985C28.6514 26.5182 27.6626 27.507 26.4429 27.507Z" fill="url(#paint0_linear_69_72)"/>
<path d="M25.9322 26.9836H4.06803C2.90271 26.9836 1.95801 26.0388 1.95801 24.8735V6.66764C1.95801 5.50232 2.90266 4.55762 4.06803 4.55762H25.9321C27.0974 4.55762 28.0421 5.50227 28.0421 6.66764V24.8736C28.0422 26.0389 27.0975 26.9836 25.9322 26.9836Z" fill="url(#paint1_linear_69_72)"/>
<path d="M27.1719 10.1983L21.6673 0.664136C21.3007 0.0290387 20.4885 -0.188579 19.8534 0.17816L2.49805 10.1983H27.1719Z" fill="white"/>
<path d="M1.34961 17.8715H28.6514V10.6404C28.6514 9.72766 27.9115 8.98779 26.9988 8.98779H3.00219C2.08947 8.98779 1.34961 9.72766 1.34961 10.6404V17.8715Z" fill="#35C31E"/>
<path d="M1.34961 15.1521V25.2988C1.34961 26.5185 2.33838 27.5073 3.55813 27.5073H26.4429C27.6626 27.5073 28.6514 26.5186 28.6514 25.2989V15.1521C28.6514 14.3988 28.0406 13.7881 27.2873 13.7881H2.71367C1.96033 13.7881 1.34961 14.3987 1.34961 15.1521Z" fill="url(#paint2_linear_69_72)"/>
<path d="M24.5322 9.91846V27.5072H26.4427C27.6624 27.5072 28.6511 26.5184 28.6511 25.2987V14.0374L24.5322 9.91846Z" fill="white"/>
<path d="M22.6702 29.9833L3.50498 27.7575C2.27639 27.6147 1.34961 26.5742 1.34961 25.3373V6.07812C1.34961 6.49203 1.65975 6.8402 2.07078 6.88795L23.2323 9.34572C24.4609 9.48846 25.3877 10.529 25.3877 11.7659V27.5632C25.3877 29.0202 24.1174 30.1515 22.6702 29.9833Z" fill="#35C31E"/>
<path d="M22.6702 26.1362L3.50498 23.9104C2.27639 23.7677 1.34961 22.7271 1.34961 21.4902V25.3371C1.34961 26.574 2.27639 27.6146 3.50498 27.7573L22.6702 29.9832C24.1174 30.1513 25.3878 29.02 25.3878 27.563V23.7161C25.3877 25.1731 24.1174 26.3043 22.6702 26.1362Z" fill="url(#paint3_linear_69_72)"/>
<path d="M3.06778 9.07989C3.05173 9.07989 3.03544 9.07895 3.01909 9.0772L2.14206 8.98075C1.89983 8.95409 1.72505 8.73624 1.75171 8.49407C1.77837 8.2519 1.9964 8.07729 2.23839 8.10372L3.11542 8.20016C3.35765 8.22682 3.53243 8.44468 3.50577 8.68684C3.48093 8.91272 3.2898 9.07989 3.06778 9.07989Z" fill="url(#paint4_linear_69_72)"/>
<path d="M21.0891 28.5297C21.0706 28.5297 21.0518 28.5285 21.0329 28.5262L19.3284 28.3094C19.0867 28.2787 18.9156 28.0578 18.9464 27.8161C18.9771 27.5744 19.198 27.4043 19.4397 27.4341L21.1443 27.6508C21.3859 27.6815 21.5571 27.9024 21.5263 28.1442C21.4978 28.367 21.308 28.5297 21.0891 28.5297ZM22.7669 28.3114C22.6015 28.3114 22.4427 28.2178 22.3675 28.0581C22.2637 27.8377 22.3582 27.5748 22.5786 27.471C23.0262 27.2601 23.3628 26.9103 23.5022 26.5111C23.5825 26.2812 23.8343 26.1599 24.0642 26.2401C24.2942 26.3204 24.4156 26.572 24.3352 26.802C24.1151 27.4324 23.6249 27.9535 22.9547 28.2692C22.8939 28.2978 22.83 28.3114 22.7669 28.3114ZM17.6801 28.0963C17.6616 28.0963 17.6427 28.095 17.6239 28.0927L15.9193 27.876C15.6777 27.8452 15.5065 27.6244 15.5373 27.3826C15.5681 27.141 15.7889 26.9708 16.0307 27.0006L17.7352 27.2174C17.9769 27.2481 18.148 27.469 18.1172 27.7107C18.0888 27.9334 17.8988 28.0963 17.6801 28.0963ZM14.2711 27.6627C14.2525 27.6627 14.2337 27.6615 14.2148 27.6592L12.5103 27.4424C12.2686 27.4117 12.0975 27.1908 12.1283 26.9491C12.1591 26.7074 12.38 26.5364 12.6217 26.5671L14.3262 26.7838C14.5678 26.8145 14.739 27.0354 14.7082 27.2772C14.6798 27.4999 14.4898 27.6627 14.2711 27.6627ZM10.8619 27.2292C10.8434 27.2292 10.8246 27.228 10.8057 27.2256L9.10105 27.0088C8.85935 26.9781 8.68825 26.7572 8.71907 26.5155C8.74983 26.2738 8.97079 26.1036 9.21243 26.1335L10.917 26.3503C11.1587 26.3811 11.3298 26.6019 11.299 26.8436C11.2707 27.0665 11.0808 27.2292 10.8619 27.2292ZM7.45286 26.7957C7.43435 26.7957 7.41554 26.7944 7.39661 26.7921L5.692 26.5753C5.4503 26.5445 5.27921 26.3237 5.31003 26.0819C5.34079 25.8402 5.56175 25.67 5.80339 25.7L7.508 25.9168C7.7497 25.9475 7.92079 26.1684 7.88997 26.4101C7.86161 26.6329 7.67171 26.7957 7.45286 26.7957ZM24.0177 25.3909C23.774 25.3909 23.5766 25.1934 23.5766 24.9497V23.2315C23.5766 22.9878 23.774 22.7903 24.0177 22.7903C24.2614 22.7903 24.4589 22.9878 24.4589 23.2315V24.9497C24.4589 25.1934 24.2615 25.3909 24.0177 25.3909ZM24.0177 21.9544C23.774 21.9544 23.5766 21.7569 23.5766 21.5133V19.795C23.5766 19.5513 23.774 19.3538 24.0177 19.3538C24.2614 19.3538 24.4589 19.5513 24.4589 19.795V21.5133C24.4589 21.7569 24.2615 21.9544 24.0177 21.9544ZM24.0177 18.5179C23.774 18.5179 23.5766 18.3204 23.5766 18.0767V16.3585C23.5766 16.1148 23.774 15.9173 24.0177 15.9173C24.2614 15.9173 24.4589 16.1148 24.4589 16.3585V18.0767C24.4589 18.3204 24.2615 18.5179 24.0177 18.5179ZM24.0177 15.0814C23.774 15.0814 23.5766 14.8839 23.5766 14.6402V12.9219C23.5766 12.6783 23.774 12.4808 24.0177 12.4808C24.2614 12.4808 24.4589 12.6783 24.4589 12.9219V14.6402C24.4589 14.8838 24.2615 15.0814 24.0177 15.0814ZM23.4007 11.8209C23.2918 11.8209 23.1826 11.7808 23.0974 11.7C22.7704 11.3901 22.3166 11.1927 21.8194 11.144L21.8077 11.1428C21.5655 11.1167 21.3902 10.8992 21.4163 10.6569C21.4424 10.4147 21.6599 10.2393 21.9022 10.2655L21.9097 10.2664C22.5968 10.3337 23.2356 10.6155 23.7043 11.0595C23.8812 11.2271 23.8887 11.5063 23.7211 11.6832C23.6343 11.7747 23.5176 11.8209 23.4007 11.8209ZM20.1474 10.9576C20.1314 10.9576 20.1151 10.9567 20.0987 10.9549L18.3908 10.7671C18.1486 10.7404 17.9738 10.5226 18.0004 10.2804C18.0271 10.0383 18.2451 9.86394 18.4871 9.89007L20.1951 10.0779C20.4372 10.1045 20.6121 10.3224 20.5854 10.5645C20.5606 10.7904 20.3694 10.9576 20.1474 10.9576ZM16.7316 10.582C16.7155 10.582 16.6992 10.5811 16.6829 10.5793L14.9749 10.3915C14.7327 10.3649 14.5579 10.147 14.5845 9.90484C14.6111 9.66261 14.8295 9.48812 15.0712 9.51449L16.7792 9.70228C17.0214 9.72894 17.1962 9.94679 17.1696 10.189C17.1447 10.4148 16.9536 10.582 16.7316 10.582ZM13.3156 10.2065C13.2995 10.2065 13.2832 10.2055 13.2669 10.2038L11.5589 10.016C11.3168 9.98933 11.1419 9.77148 11.1686 9.52931C11.1952 9.28714 11.4131 9.11265 11.6553 9.13896L13.3632 9.32675C13.6054 9.35341 13.7802 9.57126 13.7536 9.81343C13.7288 10.0393 13.5376 10.2065 13.3156 10.2065ZM9.89962 9.83095C9.88357 9.83095 9.86728 9.83001 9.85093 9.82826L8.14298 9.64046C7.90075 9.6138 7.72597 9.39595 7.75263 9.15378C7.77923 8.91167 7.9969 8.73724 8.23931 8.76343L9.94726 8.95122C10.1894 8.97788 10.3643 9.19574 10.3376 9.4379C10.3129 9.66372 10.1217 9.83095 9.89962 9.83095ZM6.48366 9.45537C6.46761 9.45537 6.45132 9.45443 6.43497 9.45267L4.72702 9.26488C4.48485 9.23822 4.31001 9.02037 4.33667 8.7782C4.36333 8.53609 4.58106 8.36171 4.82335 8.38785L6.5313 8.57564C6.77353 8.6023 6.94831 8.82015 6.92165 9.06232C6.89687 9.28814 6.70567 9.45537 6.48366 9.45537Z" fill="url(#paint5_linear_69_72)"/>
<path d="M4.0398 26.3619C4.02128 26.3619 4.00253 26.3607 3.98361 26.3583L3.10828 26.247C2.86658 26.2163 2.69542 25.9954 2.72624 25.7537C2.75695 25.5121 2.97785 25.3411 3.21954 25.3717L4.09488 25.483C4.33658 25.5137 4.50773 25.7346 4.47691 25.9763C4.44855 26.1991 4.25859 26.3619 4.0398 26.3619Z" fill="url(#paint6_linear_69_72)"/>
<path d="M20.2489 3.28501L17.4253 4.82146C17.0576 5.02156 16.5972 4.88568 16.397 4.51788C16.1969 4.15009 16.3328 3.68972 16.7006 3.48956L19.5242 1.95318C19.892 1.75308 20.3523 1.88896 20.5525 2.25675C20.7526 2.62449 20.6167 3.08492 20.2489 3.28501Z" fill="#35C31E"/>
<defs>
<linearGradient id="paint0_linear_69_72" x1="15.4466" y1="2.68121" x2="15.2872" y2="7.35499" gradientUnits="userSpaceOnUse">
<stop stop-color="white"/>
<stop offset="1" stop-color="#88F577"/>
</linearGradient>
<linearGradient id="paint1_linear_69_72" x1="14.6495" y1="19.2745" x2="12.173" y2="27.0682" gradientUnits="userSpaceOnUse">
<stop stop-color="#09F0FF" stop-opacity="0"/>
<stop offset="1" stop-color="#70FF00"/>
</linearGradient>
<linearGradient id="paint2_linear_69_72" x1="15.0002" y1="16.2957" x2="15.0002" y2="28.1166" gradientUnits="userSpaceOnUse">
<stop stop-color="#FF4C54"/>
<stop offset="1" stop-color="#BE3F45"/>
</linearGradient>
<linearGradient id="paint3_linear_69_72" x1="13.0456" y1="27.0746" x2="12.6268" y2="30.2757" gradientUnits="userSpaceOnUse">
<stop stop-color="#09F0FF" stop-opacity="0"/>
<stop offset="1" stop-color="#70FF00"/>
</linearGradient>
<linearGradient id="paint4_linear_69_72" x1="2.62865" y1="8.10148" x2="2.62865" y2="28.5722" gradientUnits="userSpaceOnUse">
<stop stop-color="#FFF465"/>
<stop offset="1" stop-color="#FFE600"/>
</linearGradient>
<linearGradient id="paint5_linear_69_72" x1="14.3962" y1="8.10207" x2="14.3962" y2="28.5299" gradientUnits="userSpaceOnUse">
<stop stop-color="#FFF465"/>
<stop offset="1" stop-color="#FFE600"/>
</linearGradient>
<linearGradient id="paint6_linear_69_72" x1="3.60146" y1="8.10123" x2="3.60146" y2="28.5714" gradientUnits="userSpaceOnUse">
<stop stop-color="#FFF465"/>
<stop offset="1" stop-color="#FFE600"/>
</linearGradient>
</defs>
</svg>
